<svg width="631" height="631" viewBox="0 0 631 631" fill="none" xmlns="http://www.w3.org/2000/svg">
<path d="M512.42 561.063C512.605 561.297 512.944 561.334 513.18 561.147C550.835 530.867 581.026 492.341 601.428 448.543C621.907 404.581 631.971 356.492 630.833 308.016C629.696 259.54 617.389 211.984 594.872 169.048C572.438 126.272 540.471 89.2288 501.442 60.7772C501.2 60.6008 500.861 60.6545 500.682 60.8973L490.197 75.3234C490.024 75.5655 490.075 75.9054 490.318 76.0817C526.995 102.824 557.033 137.637 578.119 177.837C599.281 218.197 610.853 262.9 611.92 308.467C612.987 354.034 603.53 399.238 584.278 440.563C565.109 481.723 536.733 517.93 501.353 546.39C501.117 546.577 501.085 546.919 501.27 547.153L512.42 561.063Z" fill="white"/>
<path d="M475.724 44.5194C475.877 44.2612 475.788 43.9282 475.532 43.7763C436.664 20.9219 393.336 6.67285 348.474 1.99356C303.433 -2.70452 257.908 2.35447 214.992 16.8263C172.076 31.298 132.778 54.8429 99.7718 85.8587C66.8976 116.75 41.0341 154.331 23.9258 196.063C23.812 196.34 23.9449 196.657 24.2229 196.77L40.7325 203.499C41.0098 203.612 41.3267 203.478 41.4405 203.201C57.5226 163.985 81.8302 128.67 112.724 99.6389C143.749 70.4845 180.69 48.3521 221.031 34.7486C261.372 21.1452 304.168 16.3898 346.506 20.806C388.665 25.2034 429.38 38.5917 465.91 60.0655C466.172 60.2169 466.504 60.1319 466.657 59.8738L475.724 44.5194Z" fill="white"/>
<path d="M11.4461 234.881C11.1566 234.804 10.8589 234.977 10.7828 235.266C3.6692 262.24 0.167017 290.037 0.367652 317.929C0.370208 318.229 0.615578 318.47 0.915254 318.467L18.7456 318.3C19.0453 318.298 19.2862 318.053 19.2836 317.753C19.0977 291.556 22.3871 265.449 29.0656 240.114C29.1423 239.824 28.9697 239.527 28.6797 239.45L11.4461 234.881Z" fill="white"/>
<path d="M3.69924 357.516C3.40212 357.556 3.19382 357.83 3.23407 358.126C8.96689 400.285 23.1769 440.846 45.0098 477.363C66.9353 514.036 96.0907 545.866 130.705 570.918C165.318 595.971 204.668 613.724 246.362 623.097C287.881 632.432 330.857 633.262 372.71 625.544C373.004 625.49 373.202 625.207 373.144 624.912L369.886 607.384C369.834 607.09 369.547 606.895 369.253 606.95C329.925 614.199 289.535 613.415 250.519 604.643C211.326 595.832 174.337 579.145 141.8 555.595C109.264 532.046 81.8577 502.126 61.2472 467.654C40.7306 433.336 27.3749 395.221 21.9827 355.604C21.9424 355.307 21.6689 355.098 21.3718 355.138L3.69924 357.516Z" fill="white"/>
<path d="M404.371 617.432C404.454 617.72 404.754 617.884 405.042 617.8C432.562 609.651 458.843 597.784 483.155 582.528C483.411 582.369 483.487 582.033 483.328 581.78L473.826 566.696C473.667 566.442 473.334 566.366 473.079 566.525C450.242 580.853 425.559 591.999 399.706 599.654C399.419 599.739 399.259 600.041 399.342 600.328L404.371 617.432Z" fill="white"/>
<path d="M542.074 472.434C455.36 597.424 283.689 628.48 158.64 541.8C33.5939 455.119 2.52353 283.526 89.2435 158.536C175.963 33.546 347.63 2.48977 472.683 89.1701C597.728 175.851 628.795 347.443 542.074 472.434ZM130.252 186.963C59.2395 289.315 84.6819 429.829 187.08 500.809C289.478 571.79 430.057 546.359 501.065 444.007C572.08 341.655 546.637 201.142 444.242 130.161C341.841 59.18 201.265 84.6109 130.252 186.963Z" fill="white"/>
</svg>
